#!OML:ASF F:\VICON\USERDATA\INSTALL\Justin_Nancy\Justin_Nancy.ASF
:FULLY-SPECIFIED
:DEGREES
51
root -0.0852604 17.8522 1.75297 8.32353 2.29633 -4.98334
lowerback 7.74634 2.09974 6.43165
upperback -2.36639 3.67111 2.99821
thorax -6.6478 1.60324 -0.938274
lowerneck -21.9234 -6.299 -11.1734
upperneck 13.765 -6.80839 8.71006
head 8.5629 -2.92665 3.82851
rclavicle -1.41137e-014 -7.95139e-015
rhumerus -45.6934 21.104 -92.7397
rradius 138.355
rwrist -6.46574
rhand -15.4298 31.8686
rfingers 7.12502
rthumb 10.7502 2.16365
lclavicle -1.41137e-014 -7.95139e-015
lhumerus -70.8625 2.11159 90.4049
lradius 108.222
lwrist 21.4825
lhand -12.2675 2.60344
lfingers 7.12502
lthumb 13.7992 32.1258
rfemur 21.0303 7.81478 33.6517
rtibia 39.02
rfoot 31.8166 -7.51332
rtoes 13.9681
lfemur -43.0011 -0.939902 -17.8032
ltibia 29.041
lfoot 6.71298 -0.483362
ltoes -17.9025
52
root -0.103257 17.795 2.36382 7.70231 2.10787 -4.88091
lowerback 8.03658 2.18012 6.08948
upperback -1.96225 3.74133 3.00788
thorax -6.39882 1.66458 -0.753643
lowerneck -22.2948 -6.43045 -11.0901
upperneck 13.8246 -6.95089 8.58821
head 8.65231 -2.99217 3.74659
rclavicle 4.76089e-014 7.15625e-015
rhumerus -46.4752 20.3537 -92.6663
rradius 136.966
rwrist -6.21628
rhand -18.2992 27.8819
rfingers 7.12502
rthumb 7.98154 -1.94739
lclavicle 4.76089e-014 7.15625e-015
lhumerus -69.689 1.71132 90.6563
lradius 107.663
lwrist 21.5205
lhand -14.1348 5.05062
lfingers 7.12502
lthumb 11.9992 34.6867
rfemur 20.0041 7.62047 33.3934
rtibia 44.074
rfoot 31.3293 -8.16055
rtoes 10.8949
lfemur -41.8192 -0.478947 -18.3557
ltibia 29.056
lfoot 6.6231 -3.07196
ltoes -21.7096
53
root -0.117436 17.7205 2.97659 7.02747 1.72296 -4.60238
lowerback 8.42779 2.23569 5.64766
upperback -1.55107 3.76806 2.90757
thorax -6.20207 1.70272 -0.627568
lowerneck -22.5429 -6.41956 -10.914
upperneck 13.5638 -6.94009 8.55361
head 8.59567 -2.97442 3.70299
rclavicle -2.29596e-014 4.77083e-015
rhumerus -47.2479 19.6197 -92.7974
rradius 135.366
rwrist -5.6765
rhand -17.6825 30.213
rfingers 7.12502
rthumb 8.57678 0.407223
lclavicle -2.29596e-014 4.77083e-015
lhumerus -68.3235 1.31833 90.8687
lradius 107.047
lwrist 21.5559
lhand -14.0604 5.15843
lfingers 7.12502
lthumb 12.0709 34.7903
rfemur 18.9558 7.32215 32.6151
rtibia 49.2584
rfoot 31.365 -8.85252
rtoes 10.6026
lfemur -40.4402 0.0523736 -19.0653
ltibia 29.3519
lfoot 7.12547 -5.25804
ltoes -22.3933
54
root -0.130092 17.6531 3.58237 6.50816 1.57025 -4.04988
lowerback 8.62955 2.23072 5.02193
upperback -1.25505 3.6781 2.68501
thorax -6.02808 1.68442 -0.505059
lowerneck -22.0993 -6.32391 -10.8952
upperneck 12.8546 -6.88713 8.89397
head 8.28972 -2.92457 3.82699
rclavicle -9.93923e-017 0
rhumerus -48.0341 18.4662 -92.7273
rradius 133.525
rwrist -4.84226
rhand -18.1881 30.2965
rfingers 7.12502
rthumb 8.08883 0.471296
lclavicle -9.93923e-017 0
lhumerus -66.8941 0.596984 91.1487
lradius 106.421
lwrist 21.6925
lhand -13.8106 4.38722
lfingers 7.12502
lthumb 12.3117 34.0048
rfemur 17.0859 6.63143 31.2569
rtibia 54.5884
rfoot 32.5872 -9.17944
rtoes 13.356
lfemur -39.1377 0.346647 -20.0197
ltibia 30.0471
lfoot 7.63872 -6.52837
ltoes -17.3079
55
root -0.151341 17.5559 4.17159 5.98041 1.6314 -3.59757
lowerback 9.07619 2.16983 4.50353
upperback -1.14842 3.54972 2.43014
thorax -6.18696 1.63148 -0.484204
lowerneck -21.6466 -6.20876 -10.7019
upperneck 12.5387 -6.86674 9.14809
head 8.11054 -2.89186 3.89008
rclavicle -3.77691e-015 -1.19271e-014
rhumerus -49.1104 17.3607 -92.9301
rradius 131.826
rwrist -6.032
rhand -15.9335 31.4074
rfingers 7.12502
rthumb 10.2643 1.6778
lclavicle -3.77691e-015 -1.19271e-014
lhumerus -65.8363 -0.34888 91.4579
lradius 106.04
lwrist 21.7605
lhand -15.0348 4.33376
lfingers 7.12502
lthumb 11.1312 34.0185
rfemur 15.3062 5.60601 29.955
rtibia 59.8801
rfoot 31.8947 -9.23965
rtoes 11.6356
lfemur -37.867 0.527665 -20.8087
ltibia 31.1818
lfoot 7.07214 -7.40069
ltoes -9.25464
56
root -0.189689 17.4374 4.76149 5.14728 1.51427 -3.77854
lowerback 9.78529 2.1061 4.29526
upperback -0.904159 3.47515 2.45007
thorax -6.34685 1.60026 -0.362834
lowerneck -21.8382 -6.13988 -10.4078
upperneck 12.9229 -6.86968 9.15619
head 8.26232 -2.87168 3.84565
rclavicle -1.3418e-014 -2.14687e-014
rhumerus -50.0202 16.4305 -93.0475
rradius 130.015
rwrist -7.20906
rhand -14.7298 31.8773
rfingers 7.12502
rthumb 11.4253 2.20856
lclavicle -1.3418e-014 -2.14687e-014
lhumerus -64.7098 -1.09543 91.7936
lradius 105.888
lwrist 21.4116
lhand -14.2431 2.99089
lfingers 7.12502
lthumb 11.8947 32.633
rfemur 13.8748 4.69613 29.5089
rtibia 65.0335
rfoot 31.5002 -9.71433
rtoes 14.1511
lfemur -36.4107 0.916794 -20.7883
ltibia 32.911
lfoot 4.33455 -8.22414
ltoes -7.58535
57
root -0.223504 17.3405 5.35605 4.50308 1.44749 -3.55573
lowerback 10.0368 2.03564 3.54881
upperback -0.458656 3.28908 2.50723
thorax -6.0672 1.54377 0.138127
lowerneck -22.1539 -6.06413 -10.3711
upperneck 12.9742 -6.78145 9.32731
head 8.3294 -2.80236 3.90914
rclavicle -7.95139e-015 -2.38542e-015
rhumerus -50.4157 15.6458 -92.8175
rradius 127.85
rwrist -8.02335
rhand -14.4591 32.2562
rfingers 7.12502
rthumb 11.6864 2.60218
lclavicle -7.95139e-015 -2.38542e-015
lhumerus -62.881 -1.73021 92.3523
lradius 105.554
lwrist 21.1257
lhand -14.6025 4.79477
lfingers 7.12502
lthumb 11.5481 34.4566
rfemur 12.0887 3.70851 28.4725
rtibia 70.0081
rfoot 30.6986 -10.5156
rtoes 15.9469
lfemur -35.2011 1.01989 -21.0902
ltibia 35.354
lfoot 0.073821 -8.09453
ltoes -13.5811
58
root -0.243988 17.2552 5.94322 4.16756 1.57832 -3.1698
lowerback 10.1215 1.88214 2.78052
upperback -0.157908 2.98239 2.47052
thorax -5.83914 1.42137 0.576055
lowerneck -22.2128 -5.93696 -10.2099
upperneck 12.7869 -6.66794 9.47915
head 8.26538 -2.72424 3.95054
rclavicle 2.13694e-014 1.82882e-014
rhumerus -50.7376 14.9067 -92.6113
rradius 125.465
rwrist -8.84619
rhand -14.2955 32.582
rfingers 7.12502
rthumb 11.8441 2.93695
lclavicle 2.13694e-014 1.82882e-014
lhumerus -60.8395 -2.40322 92.9
lradius 105.073
lwrist 21.142
lhand -14.5566 5.22603
lfingers 7.12502
lthumb 11.5924 34.8854
rfemur 9.8699 2.47848 27.0385
rtibia 74.792
rfoot 29.058 -10.8658
rtoes 13.0191
lfemur -34.231 0.829149 -21.5474
ltibia 38.1964
lfoot -2.87249 -7.99785
ltoes -5.31844
59
root -0.258837 17.15 6.51758 3.8133 1.63191 -3.08106
lowerback 10.4947 1.70899 2.41576
upperback -0.0913929 2.72168 2.46642
thorax -5.99762 1.30218 0.804173
lowerneck -21.7929 -5.74862 -10.0543
upperneck 12.6326 -6.52147 9.64673
head 8.13046 -2.64267 4.00756
rclavicle 3.19049e-014 -2.38542e-015
rhumerus -51.371 14.153 -92.6318
rradius 122.881
rwrist -9.47377
rhand -14.1683 32.4185
rfingers 7.12502
rthumb 11.9668 2.78053
lclavicle 3.19049e-014 -2.38542e-015
lhumerus -59.2658 -3.10165 93.4509
lradius 104.937
lwrist 21.5971
lhand -14.6691 5.46605
lfingers 7.12502
lthumb 11.4838 35.1315
rfemur 7.60339 1.21093 25.7756
rtibia 79.4365
rfoot 26.9972 -11.1149
rtoes 13.7597
lfemur -33.094 0.572039 -21.6887
ltibia 41.0226
lfoot -6.24785 -6.61449
ltoes -1.37555
60
root -0.269578 17.0541 7.08975 3.57695 1.54293 -2.46679
lowerback 10.8647 1.53869 1.52083
upperback -0.0830161 2.3892 2.34325
thorax -6.22795 1.16236 1.21948
lowerneck -21.4883 -5.50006 -9.88126
upperneck 12.61 -6.2736 9.7074
head 8.04327 -2.5194 4.03883
rclavicle -2.73329e-014 -1.15295e-014
rhumerus -52.0061 13.477 -92.6747
rradius 120.075
rwrist -10.2447
rhand -13.9603 32.0671
rfingers 7.12502
rthumb 12.1674 2.44097
lclavicle -2.73329e-014 -1.15295e-014
lhumerus -57.665 -3.653 93.9436
lradius 104.932
lwrist 22.3577
lhand -14.9287 6.0789
lfingers 7.12502
lthumb 11.2335 35.7581
rfemur 5.15949 0.0185324 23.7745
rtibia 83.9295
rfoot 24.7443 -10.7475
rtoes 13.0622
lfemur -31.7671 0.184847 -22.4163
ltibia 43.4311
lfoot -9.53351 -4.45754
ltoes -1.60683
61
root -0.276874 16.9716 7.65932 3.67796 1.41701 -1.10115
lowerback 10.8912 1.41103 -0.0917647
upperback -0.143976 1.99587 2.01931
thorax -6.34494 1.01515 1.84987
lowerneck -21.5784 -5.43065 -9.98556
upperneck 13.0459 -6.21438 9.93634
head 8.21092 -2.46962 4.14758
rclavicle -1.58034e-014 -2.42517e-014
rhumerus -52.7697 12.5363 -92.6664
rradius 117.282
rwrist -10.8558
rhand -13.8115 31.4922
rfingers 7.12502
rthumb 12.3109 1.87461
lclavicle -1.58034e-014 -2.42517e-014
lhumerus -55.6889 -4.16244 94.4182
lradius 104.671
lwrist 23.2096
lhand -14.9686 6.85772
lfingers 7.12502
lthumb 11.1951 36.539
rfemur 2.21624 -1.26349 20.7054
rtibia 88.299
rfoot 22.4683 -9.36332
rtoes 11.4851
lfemur -30.4341 -0.217006 -24.0472
ltibia 45.1428
lfoot -12.1803 -2.36666
ltoes -2.11866
